<svg width="62" height="227" viewBox="0 0 62 227" fill="none" xmlns="http://www.w3.org/2000/svg">
<ellipse cx="31.0762" cy="194.925" rx="29.9792" ry="30.675" stroke="white" stroke-opacity="0.2"/>
<path d="M27.9121 190.306C28.7976 189.42 29.8653 188.978 31.1153 188.978C32.3653 188.978 33.42 189.42 34.2793 190.306C35.1647 191.165 35.6075 192.22 35.6075 193.47C35.6075 194.72 35.1647 195.787 34.2793 196.673C33.42 197.532 32.3653 197.962 31.1153 197.962C29.8653 197.962 28.7976 197.532 27.9121 196.673C27.0528 195.787 26.6231 194.72 26.6231 193.47C26.6231 192.22 27.0528 191.165 27.9121 190.306ZM29.045 195.54C29.6179 196.113 30.308 196.399 31.1153 196.399C31.9226 196.399 32.6127 196.113 33.1856 195.54C33.7585 194.967 34.045 194.277 34.045 193.47C34.045 192.662 33.7585 191.972 33.1856 191.399C32.6127 190.827 31.9226 190.54 31.1153 190.54C30.308 190.54 29.6179 190.827 29.045 191.399C28.472 191.972 28.1856 192.662 28.1856 193.47C28.1856 194.277 28.472 194.967 29.045 195.54ZM36.5059 188.079C36.7142 188.261 36.8184 188.496 36.8184 188.782C36.8184 189.069 36.7142 189.316 36.5059 189.524C36.3236 189.733 36.0892 189.837 35.8028 189.837C35.5163 189.837 35.2689 189.733 35.0606 189.524C34.8522 189.316 34.7481 189.069 34.7481 188.782C34.7481 188.496 34.8522 188.261 35.0606 188.079C35.2689 187.871 35.5163 187.767 35.8028 187.767C36.0892 187.767 36.3236 187.871 36.5059 188.079ZM39.8262 189.876C39.8522 190.579 39.8653 191.777 39.8653 193.47C39.8653 195.162 39.8522 196.36 39.8262 197.064C39.7481 198.652 39.2663 199.889 38.3809 200.774C37.5215 201.634 36.2976 202.09 34.709 202.142C34.0059 202.194 32.808 202.22 31.1153 202.22C29.4226 202.22 28.2246 202.194 27.5215 202.142C25.933 202.064 24.709 201.595 23.8496 200.735C23.5111 200.423 23.2377 200.058 23.0293 199.642C22.821 199.225 22.6647 198.821 22.5606 198.431C22.4825 198.04 22.4434 197.584 22.4434 197.064C22.3913 196.36 22.3653 195.162 22.3653 193.47C22.3653 191.777 22.3913 190.566 22.4434 189.837C22.5215 188.274 22.9903 187.064 23.8496 186.204C24.709 185.319 25.933 184.837 27.5215 184.759C28.2246 184.733 29.4226 184.72 31.1153 184.72C32.808 184.72 34.0059 184.733 34.709 184.759C36.2976 184.837 37.5215 185.319 38.3809 186.204C39.2663 187.064 39.7481 188.287 39.8262 189.876ZM37.9512 198.626C38.0293 198.418 38.0944 198.157 38.1465 197.845C38.1986 197.506 38.2377 197.116 38.2637 196.673C38.2897 196.204 38.3028 195.827 38.3028 195.54C38.3028 195.254 38.3028 194.85 38.3028 194.329C38.3028 193.808 38.3028 193.522 38.3028 193.47C38.3028 193.392 38.3028 193.105 38.3028 192.61C38.3028 192.09 38.3028 191.686 38.3028 191.399C38.3028 191.113 38.2897 190.748 38.2637 190.306C38.2377 189.837 38.1986 189.446 38.1465 189.134C38.0944 188.795 38.0293 188.522 37.9512 188.314C37.6387 187.506 37.0788 186.946 36.2715 186.634C36.0632 186.556 35.7897 186.491 35.4512 186.439C35.1387 186.386 34.7481 186.347 34.2793 186.321C33.8366 186.295 33.472 186.282 33.1856 186.282C32.9252 186.282 32.5215 186.282 31.9746 186.282C31.4538 186.282 31.1674 186.282 31.1153 186.282C31.0632 186.282 30.7767 186.282 30.2559 186.282C29.7351 186.282 29.3314 186.282 29.045 186.282C28.7585 186.282 28.3809 186.295 27.9121 186.321C27.4694 186.347 27.0788 186.386 26.7403 186.439C26.4278 186.491 26.1674 186.556 25.959 186.634C25.1517 186.946 24.5918 187.506 24.2793 188.314C24.2012 188.522 24.1361 188.795 24.084 189.134C24.0319 189.446 23.9929 189.837 23.9668 190.306C23.9408 190.748 23.9278 191.113 23.9278 191.399C23.9278 191.66 23.9278 192.064 23.9278 192.61C23.9278 193.131 23.9278 193.418 23.9278 193.47C23.9278 193.574 23.9278 193.821 23.9278 194.212C23.9278 194.577 23.9278 194.889 23.9278 195.149C23.9278 195.384 23.9278 195.696 23.9278 196.087C23.9538 196.478 23.9799 196.816 24.0059 197.103C24.0319 197.363 24.071 197.636 24.1231 197.923C24.1752 198.209 24.2272 198.444 24.2793 198.626C24.6179 199.433 25.1778 199.993 25.959 200.306C26.1674 200.384 26.4278 200.449 26.7403 200.501C27.0788 200.553 27.4694 200.592 27.9121 200.618C28.3809 200.644 28.7455 200.657 29.0059 200.657C29.2924 200.657 29.696 200.657 30.2168 200.657C30.7637 200.657 31.0632 200.657 31.1153 200.657C31.1934 200.657 31.4799 200.657 31.9746 200.657C32.4955 200.657 32.8991 200.657 33.1856 200.657C33.472 200.657 33.8366 200.644 34.2793 200.618C34.7481 200.592 35.1387 200.553 35.4512 200.501C35.7897 200.449 36.0632 200.384 36.2715 200.306C37.0788 199.967 37.6387 199.407 37.9512 198.626Z" fill="white"/>
<ellipse cx="31.0762" cy="113.125" rx="29.9792" ry="30.675" stroke="white" stroke-opacity="0.2"/>
<path d="M39.0059 107.607C39.0319 107.711 39.045 107.881 39.045 108.115C39.045 109.495 38.7845 110.875 38.2637 112.256C37.7429 113.61 37.0007 114.86 36.0371 116.006C35.0996 117.125 33.8757 118.037 32.3653 118.74C30.8549 119.443 29.1882 119.795 27.3653 119.795C25.0736 119.795 22.9772 119.183 21.0762 117.959C21.3627 117.985 21.6882 117.998 22.0528 117.998C23.9538 117.998 25.6595 117.412 27.17 116.24C26.2585 116.24 25.4512 115.98 24.7481 115.459C24.071 114.912 23.6022 114.235 23.3418 113.428C23.6022 113.454 23.8496 113.467 24.084 113.467C24.4486 113.467 24.8132 113.428 25.1778 113.349C24.5528 113.219 23.9929 112.959 23.4981 112.568C23.0033 112.178 22.6127 111.709 22.3262 111.162C22.0397 110.589 21.8965 109.977 21.8965 109.326V109.248C22.4694 109.586 23.0814 109.769 23.7325 109.795C22.5085 108.961 21.8965 107.816 21.8965 106.357C21.8965 105.628 22.0918 104.938 22.4825 104.287C23.4981 105.563 24.7351 106.579 26.1934 107.334C27.6778 108.089 29.2533 108.506 30.92 108.584C30.8679 108.271 30.8418 107.959 30.8418 107.646C30.8418 106.527 31.2325 105.563 32.0137 104.756C32.821 103.948 33.7845 103.545 34.9043 103.545C36.1022 103.545 37.1049 103.974 37.9121 104.834C38.8496 104.652 39.722 104.326 40.5293 103.857C40.2168 104.821 39.6179 105.576 38.7325 106.123C39.5137 106.019 40.295 105.797 41.0762 105.459C40.5033 106.292 39.8132 107.008 39.0059 107.607Z" fill="white"/>
<ellipse cx="31.0762" cy="31.325" rx="29.9792" ry="30.675" stroke="white" stroke-opacity="0.2"/>
<path d="M35.7246 31.1198H32.795V39.8698H28.8887V31.1198H25.7246V27.4869H28.8887V24.7526C28.8887 23.7109 29.084 22.8255 29.4746 22.0963C29.8653 21.3671 30.4121 20.8203 31.1153 20.4557C31.8444 20.0651 32.6778 19.8698 33.6153 19.8698C34.0319 19.8698 34.4746 19.8958 34.9434 19.9479C35.4121 19.9739 35.7767 20.013 36.0371 20.0651L36.4278 20.1041V23.1901H34.8653C34.1361 23.1901 33.6022 23.3854 33.2637 23.776C32.9512 24.1406 32.795 24.5963 32.795 25.1432V27.4869H36.2715L35.7246 31.1198Z" fill="white"/>
</svg>
